# xmcd
#
# Track frame offsets: 
#        150
#        16250
#        33575
#        51325
#        68325
#        87287
#        103650
#        121950
#        138750
#        155750
#
# Disc length: 2326 seconds
#
# Revision: 2
# Processed by: cddbd v1.5.1PL0 Copyright (c) Steve Scherf et al.
# Submitted via: ExactAudioCopy v0.95a5
#
DISCID=7c09140a
DTITLE=Various Artist - Top Gun
DYEAR=1986
DGENRE=Soundtrack
TTITLE0=Kenny Loggins - Danger Zone
TTITLE1=Cheap Trick - Mighty Wings
TTITLE2=Kenny Loggins - Playing With The Boys
TTITLE3=Teena Marie - Lead Me On
TTITLE4=Berlin - Take My Breath Away
TTITLE5=Miami Sound Machine - Hot Summer Nights
TTITLE6=Loverboy - Heaven In Your Eyes
TTITLE7=Larry Greene - Through The Fire
TTITLE8=Marietta - Destination Unknown
TTITLE9=Harold Faltermeyer and Steve Stevens - Top Gun Anthem
EXTD=
EXTT0=
EXTT1=
EXTT2=
EXTT3=
EXTT4=
EXTT5=
EXTT6=
EXTT7=
EXTT8=
EXTT9=
PLAYORDER=
